<svg width="1440" height="900" viewBox="0 0 1440 900" fill="none" xmlns="http://www.w3.org/2000/svg">
  <defs>
    <linearGradient id="bg" x1="0" y1="0" x2="0" y2="1">
      <stop offset="0%" stop-color="#F8FAFF"/>
      <stop offset="100%" stop-color="#FFFFFF"/>
    </linearGradient>
    <linearGradient id="sidebar" x1="0" y1="0" x2="1" y2="1">
      <stop offset="0%" stop-color="#1E2230"/>
      <stop offset="100%" stop-color="#171B27"/>
    </linearGradient>
  </defs>

  <rect x="0" y="0" width="1440" height="900" fill="url(#bg)"/>
  <rect x="0" y="0" width="280" height="900" fill="url(#sidebar)"/>
  <rect x="22" y="24" rx="14" ry="14" width="236" height="50" fill="#2A3247"/>
  <text x="140" y="56" text-anchor="middle" font-family="Segoe UI, Arial" font-size="20" fill="#FFFFFF">+ New Chat</text>

  <rect x="280" y="0" width="1160" height="66" fill="#FFFFFF" stroke="#ECEFF6"/>
  <text x="860" y="42" text-anchor="middle" font-family="Segoe UI, Arial" font-size="24" fill="#131826">New Chat</text>

  <text x="860" y="360" text-anchor="middle" font-family="Segoe UI, Arial" font-size="64" font-weight="700" fill="#111827">XuanWu AI Assistant</text>
  <text x="860" y="410" text-anchor="middle" font-family="Segoe UI, Arial" font-size="24" fill="#64748B">对话区（消息流）</text>

  <rect x="370" y="690" rx="24" ry="24" width="980" height="86" fill="#FFFFFF" stroke="#DCE3F3"/>
  <text x="430" y="742" font-family="Segoe UI, Arial" font-size="26" fill="#94A3B8">输入消息...</text>
  <circle cx="1302" cy="733" r="26" fill="#7C83FD"/>
  <text x="1302" y="742" text-anchor="middle" font-family="Segoe UI, Arial" font-size="20" fill="#FFFFFF">↑</text>

  <rect x="370" y="790" rx="12" ry="12" width="980" height="58" fill="#FFFFFF" stroke="#D8E0F2"/>
  <rect x="384" y="804" rx="16" ry="16" width="92" height="30" fill="#17233C"/>
  <text x="430" y="824" text-anchor="middle" font-family="Segoe UI, Arial" font-size="14" fill="#FFFFFF">Attach</text>

  <text x="494" y="824" font-family="Segoe UI, Arial" font-size="12" font-weight="700" fill="#64748B">附件</text>
  <rect x="530" y="804" rx="14" ry="14" width="168" height="30" fill="#EEF2FF"/>
  <text x="614" y="824" text-anchor="middle" font-family="Segoe UI, Arial" font-size="13" fill="#24324A">需求说明.pdf</text>
  <rect x="706" y="804" rx="14" ry="14" width="130" height="30" fill="#EEF2FF"/>
  <text x="771" y="824" text-anchor="middle" font-family="Segoe UI, Arial" font-size="13" fill="#24324A">会议纪要.docx</text>

  <line x1="860" y1="800" x2="860" y2="838" stroke="#D1D9EA"/>

  <text x="878" y="824" font-family="Segoe UI, Arial" font-size="12" font-weight="700" fill="#64748B">产物链接</text>
  <rect x="940" y="804" rx="14" ry="14" width="150" height="30" fill="#EDFDF4"/>
  <text x="1015" y="824" text-anchor="middle" font-family="Segoe UI, Arial" font-size="13" fill="#17603A">方案总结.pdf</text>
  <rect x="1098" y="804" rx="14" ry="14" width="140" height="30" fill="#EDFDF4"/>
  <text x="1168" y="824" text-anchor="middle" font-family="Segoe UI, Arial" font-size="13" fill="#17603A">报价草案.docx</text>

  <text x="370" y="875" font-family="Segoe UI, Arial" font-size="16" fill="#475569">设计要点：输入框独立保留；附件区固定单行、常驻可见；产物使用可点击 Link Chip。</text>
</svg>
